name rise36.2859peak64.2979fall75.1499.mot
datacolumns 19
datarows 32
range 17.50326700000000 17.55493700000000
endheader
time	ground_force1_vx	ground_force1_vy	ground_force1_vz	ground_force1_px	ground_force1_py	ground_force1_pz	ground_force2_vx	ground_force2_vy	ground_force2_vz	ground_force2_px	ground_force2_py	ground_force2_pz	ground_torque1_x	ground_torque1_y	ground_torque1_z	ground_torque2_x	ground_torque2_y	ground_torque2_z	
17.50326700000000	-48.32012800000000	817.54809399999999	57.94338400000000	0.22050900000000	0.00000000000000	0.10864600000000	-5.16328400000000	43.49196700000000	9.12667900000000	0.43425800000000	0.00000000000000	-0.07542100000000	0.00000000000000	35.44656500000000	0.00000000000000	0.00000000000000	7.80064200000000	0.00000000000000	
17.50493400000000	-48.51671200000000	815.38273300000003	57.77858700000000	0.21958200000000	0.00000000000000	0.10866500000000	-5.66535500000000	49.49084100000000	10.15859300000000	0.43486400000000	0.00000000000000	-0.07610700000000	0.00000000000000	35.26482200000000	0.00000000000000	0.00000000000000	8.70476200000000	0.00000000000000	
17.50660000000000	-48.71576200000000	813.09015399999998	57.59285300000000	0.21866700000000	0.00000000000000	0.10868000000000	-6.09586600000000	55.36960600000000	11.10421100000000	0.43563500000000	0.00000000000000	-0.07673200000000	0.00000000000000	35.07680100000000	0.00000000000000	0.00000000000000	9.54303400000000	0.00000000000000	
17.50826900000000	-48.91821200000000	810.67040299999996	57.38611500000000	0.21776400000000	0.00000000000000	0.10869300000000	-6.44563200000000	61.06556300000000	11.94878400000000	0.43654600000000	0.00000000000000	-0.07730400000000	0.00000000000000	34.88281900000000	0.00000000000000	0.00000000000000	10.30304100000000	0.00000000000000	
17.50993400000000	-49.12497400000000	808.12355500000001	57.15834000000000	0.21687400000000	0.00000000000000	0.10870300000000	-6.70964500000000	66.54124700000000	12.68412800000000	0.43758000000000	0.00000000000000	-0.07783100000000	0.00000000000000	34.68320000000000	0.00000000000000	0.00000000000000	10.97770000000000	0.00000000000000	
17.51160000000000	-49.33693800000000	805.44970899999998	56.90952800000000	0.21599800000000	0.00000000000000	0.10871000000000	-6.88679900000000	71.78367400000000	13.30826200000000	0.43871800000000	0.00000000000000	-0.07831900000000	0.00000000000000	34.47827000000000	0.00000000000000	0.00000000000000	11.56500200000000	0.00000000000000	
17.51326700000000	-49.55496100000000	802.64897599999995	56.63971400000000	0.21513500000000	0.00000000000000	0.10871200000000	-6.97934300000000	76.80171300000001	13.82458100000000	0.43994600000000	0.00000000000000	-0.07877300000000	0.00000000000000	34.26835500000000	0.00000000000000	0.00000000000000	12.06737900000000	0.00000000000000	
17.51493300000000	-49.77986800000000	799.72148200000004	56.34896400000000	0.21428700000000	0.00000000000000	0.10871200000000	-6.99216000000000	81.62211600000001	14.24074200000000	0.44125200000000	0.00000000000000	-0.07919600000000	0.00000000000000	34.05378400000000	0.00000000000000	0.00000000000000	12.49082000000000	0.00000000000000	
17.51660400000000	-50.01244500000000	796.66735300000005	56.03737900000000	0.21345400000000	0.00000000000000	0.10870700000000	-6.93195200000000	86.28476900000000	14.56739200000000	0.44262500000000	0.00000000000000	-0.07959400000000	0.00000000000000	33.83488100000000	0.00000000000000	0.00000000000000	12.84384600000000	0.00000000000000	
17.51826700000000	-50.25343000000000	793.48671800000000	55.70508600000000	0.21263600000000	0.00000000000000	0.10869900000000	-6.80642900000000	90.83769900000000	14.81687200000000	0.44405600000000	0.00000000000000	-0.07996800000000	0.00000000000000	33.61196900000000	0.00000000000000	0.00000000000000	13.13645200000000	0.00000000000000	
17.51993800000000	-50.50351100000000	790.17969700000003	55.35224500000000	0.21183300000000	0.00000000000000	0.10868600000000	-6.62355300000000	95.33227400000000	15.00200600000000	0.44553600000000	0.00000000000000	-0.08032200000000	0.00000000000000	33.38536400000000	0.00000000000000	0.00000000000000	13.37910900000000	0.00000000000000	
17.52160400000000	-50.76332200000000	786.74639999999999	54.97904500000000	0.21104700000000	0.00000000000000	0.10866900000000	-6.39089400000000	99.81896399999999	15.13506400000000	0.44705800000000	0.00000000000000	-0.08065800000000	0.00000000000000	33.15537600000000	0.00000000000000	0.00000000000000	13.58189900000000	0.00000000000000	
17.52327000000000	-51.03343400000000	783.18692399999998	54.58570100000000	0.21027700000000	0.00000000000000	0.10864800000000	-6.11514000000000	104.34387500000000	15.22694400000000	0.44861600000000	0.00000000000000	-0.08097800000000	0.00000000000000	32.92230400000000	0.00000000000000	0.00000000000000	13.75381700000000	0.00000000000000	
17.52493800000000	-51.31435400000000	779.50134600000001	54.17245600000000	0.20952500000000	0.00000000000000	0.10862200000000	-5.80174600000000	108.94621300000000	15.28659700000000	0.45020400000000	0.00000000000000	-0.08128400000000	0.00000000000000	32.68644100000000	0.00000000000000	0.00000000000000	13.90227900000000	0.00000000000000	
17.52660400000000	-51.60651800000000	775.68972499999995	53.73957800000000	0.20878900000000	0.00000000000000	0.10859200000000	-5.45475600000000	113.65669100000000	15.32070600000000	0.45181700000000	0.00000000000000	-0.08157700000000	0.00000000000000	32.44806400000000	0.00000000000000	0.00000000000000	14.03282900000000	0.00000000000000	
17.52827100000000	-51.91028500000000	771.75209299999995	53.28736100000000	0.20807100000000	0.00000000000000	0.10855700000000	-5.07675700000000	118.49683500000000	15.33358600000000	0.45344900000000	0.00000000000000	-0.08185900000000	0.00000000000000	32.20743900000000	0.00000000000000	0.00000000000000	14.14903600000000	0.00000000000000	
17.52992900000000	-52.22593500000000	767.68845699999997	52.81612100000000	0.20737000000000	0.00000000000000	0.10851700000000	-4.66895400000000	123.47908200000001	15.32728200000000	0.45509700000000	0.00000000000000	-0.08213100000000	0.00000000000000	31.96481700000000	0.00000000000000	0.00000000000000	14.25255400000000	0.00000000000000	
17.53159900000000	-52.55366600000000	763.49879999999996	52.32619700000000	0.20668700000000	0.00000000000000	0.10847300000000	-4.23133800000000	128.60751700000000	15.30181900000000	0.45675600000000	0.00000000000000	-0.08239400000000	0.00000000000000	31.72043100000000	0.00000000000000	0.00000000000000	14.34331700000000	0.00000000000000	
17.53326500000000	-52.89358400000000	759.18307300000004	51.81795000000000	0.20602200000000	0.00000000000000	0.10842300000000	-3.76292000000000	133.87906799999999	15.25555300000000	0.45842300000000	0.00000000000000	-0.08264800000000	0.00000000000000	31.47450000000000	0.00000000000000	0.00000000000000	14.41981900000000	0.00000000000000	
17.53493700000000	-53.24570500000000	754.74119900000005	51.29176100000000	0.20537500000000	0.00000000000000	0.10836800000000	-3.26199500000000	139.28499600000001	15.18559100000000	0.46009500000000	0.00000000000000	-0.08289600000000	0.00000000000000	31.22722300000000	0.00000000000000	0.00000000000000	14.47945900000000	0.00000000000000	
17.53659600000000	-53.60994900000000	750.17307500000004	50.74803000000000	0.20474600000000	0.00000000000000	0.10830900000000	-2.72641400000000	144.81251100000000	15.08821900000000	0.46176700000000	0.00000000000000	-0.08313600000000	0.00000000000000	30.97877800000000	0.00000000000000	0.00000000000000	14.51889900000000	0.00000000000000	
17.53827000000000	-53.98613700000000	745.47856700000000	50.18717400000000	0.20413600000000	0.00000000000000	0.10824400000000	-2.15384600000000	150.44636700000001	14.95931800000000	0.46343700000000	0.00000000000000	-0.08337100000000	0.00000000000000	30.72932400000000	0.00000000000000	0.00000000000000	14.53442000000000	0.00000000000000	
17.53993300000000	-54.37398900000000	740.65751499999999	49.60963100000000	0.20354400000000	0.00000000000000	0.10817300000000	-1.54200600000000	156.17032599999999	14.79473800000000	0.46510200000000	0.00000000000000	-0.08360000000000	0.00000000000000	30.47899900000000	0.00000000000000	0.00000000000000	14.52223600000000	0.00000000000000	
17.54160400000000	-54.77311900000000	735.70973700000002	49.01585100000000	0.20296900000000	0.00000000000000	0.10809800000000	-0.88884400000000	161.96840700000001	14.59060600000000	0.46675800000000	0.00000000000000	-0.08382400000000	0.00000000000000	30.22791800000000	0.00000000000000	0.00000000000000	14.47876500000000	0.00000000000000	
17.54326900000000	-55.18303700000000	730.63502500000004	48.40630200000000	0.20241300000000	0.00000000000000	0.10801700000000	-0.19269000000000	167.82587799999999	14.34355800000000	0.46840500000000	0.00000000000000	-0.08404300000000	0.00000000000000	29.97617500000000	0.00000000000000	0.00000000000000	14.40083900000000	0.00000000000000	
17.54493200000000	-55.60314600000000	725.43315500000006	47.78146500000000	0.20187500000000	0.00000000000000	0.10793100000000	0.54766300000000	173.72994700000001	14.05090500000000	0.47003700000000	0.00000000000000	-0.08425800000000	0.00000000000000	29.72383900000000	0.00000000000000	0.00000000000000	14.28584600000000	0.00000000000000	
17.54659900000000	-56.03273900000000	720.10388899999998	47.14183500000000	0.20135500000000	0.00000000000000	0.10784000000000	1.33290300000000	179.67018999999999	13.71071200000000	0.47165400000000	0.00000000000000	-0.08446900000000	0.00000000000000	29.47095800000000	0.00000000000000	0.00000000000000	14.13181600000000	0.00000000000000	
17.54826500000000	-56.47100200000000	714.64698099999998	46.48792100000000	0.20085200000000	0.00000000000000	0.10774400000000	2.16319600000000	185.63871200000000	13.32182400000000	0.47325300000000	0.00000000000000	-0.08467700000000	0.00000000000000	29.21755600000000	0.00000000000000	0.00000000000000	13.93744800000000	0.00000000000000	
17.54993300000000	-56.91701100000000	709.06218100000001	45.82024100000000	0.20036700000000	0.00000000000000	0.10764200000000	3.03821700000000	191.63009400000001	12.88383200000000	0.47483000000000	0.00000000000000	-0.08488100000000	0.00000000000000	28.96363400000000	0.00000000000000	0.00000000000000	13.70208800000000	0.00000000000000	
17.55160900000000	-57.36973500000000	703.34924599999999	45.13932700000000	0.19989900000000	0.00000000000000	0.10753500000000	3.95719500000000	197.64117200000001	12.39700000000000	0.47638500000000	0.00000000000000	-0.08508100000000	0.00000000000000	28.70917000000000	0.00000000000000	0.00000000000000	13.42567900000000	0.00000000000000	
17.55327100000000	-57.82803400000000	697.50794699999994	44.44571800000000	0.19944800000000	0.00000000000000	0.10742300000000	4.91898600000000	203.67069900000001	11.86216700000000	0.47791300000000	0.00000000000000	-0.08527900000000	0.00000000000000	28.45411900000000	0.00000000000000	0.00000000000000	13.10867400000000	0.00000000000000	
17.55493700000000	-58.29066700000000	691.53807700000004	43.73996700000000	0.19901300000000	0.00000000000000	0.10730600000000	5.92214600000000	209.71893399999999	11.28063300000000	0.47941400000000	0.00000000000000	-0.08547300000000	0.00000000000000	28.19841500000000	0.00000000000000	0.00000000000000	12.75194800000000	0.00000000000000	
